<?xml version="1.0" encoding="utf-8"?>

<!DOCTYPE svg PUBLIC "-//W3C//DTD SVG 1.1//EN" "http://www.w3.org/Graphics/SVG/1.1/DTD/svg11.dtd">
<svg version="1.1" id="Layer_1" xmlns="http://www.w3.org/2000/svg" xmlns:xlink="http://www.w3.org/1999/xlink" x="0px" y="0px"
	 viewBox="0 0 1659.098 1656.38" enable-background="new 0 0 1659.098 1656.38" xml:space="preserve">
<g>
	<g>
		<g>
			<g>
				<line x1="1331.641" y1="229.82" x2="327.457" y2="1426.56"/>
				<g>
					<g>
						<path fill="#202020" d="M1090.98,525.963l35.533-42.346c6.097,2.265,14.716,3.849,18.011,2.806
							c-3.775-2.434-6.512-9.341-7.683-15.114l83.46-99.464c5.139,2.393,11.757,2.703,16.762,2.004
							c-4.372-4.884-6.066-8.953-6.169-14.628l68.959-82.183c0,0,9.476-11.293,12.768-15.216
							c3.292-3.924,27.992-24.473,27.992-24.473l-16.483-13.831c0,0-16.115,28.092-19.947,32.659
							c-3.832,4.567-32.479,38.708-32.48,38.708c-6.679,0.488-12.508,0.499-19.185-3.587c2.632,5.366,5.066,11.301,9.728,14.858
							l-81.99,97.712c-6.204-1.639-10.528-3.597-16.565-7.496c-1.472,5.287,1.37,16.167,3.974,22.501l-84.416,100.604
							L1090.98,525.963z"/>
					</g>
					<g>
						<path fill="#202020" d="M858.384,803.156l35.533-42.346c6.097,2.265,14.716,3.849,18.011,2.806
							c-3.775-2.434-6.512-9.341-7.684-15.114l83.46-99.464c5.139,2.393,11.757,2.703,16.762,2.004
							c-4.372-4.884-6.066-8.953-6.169-14.628l68.96-82.183c4.474,2.545,10.53,3.449,14.757,6.69
							c-0.917-6.266-3.335-14.822-1.989-21.906l10.954-13.054l-7.731-6.487l-44.14,52.604c-6.679,0.488-12.508,0.499-19.185-3.587
							c2.632,5.365,5.066,11.301,9.728,14.858l-81.99,97.712c-6.204-1.639-10.528-3.597-16.565-7.496
							c-1.472,5.287,1.37,16.167,3.974,22.501l-84.416,100.604L858.384,803.156z"/>
					</g>
					<g>
						<path fill="#202020" d="M625.79,1080.351l35.533-42.346c6.097,2.265,14.716,3.849,18.011,2.806
							c-3.775-2.434-6.512-9.341-7.684-15.114l83.46-99.464c5.139,2.393,11.757,2.703,16.762,2.003
							c-4.372-4.884-6.066-8.953-6.169-14.628l68.959-82.183c4.474,2.545,10.53,3.45,14.757,6.69
							c-0.918-6.266-3.336-14.821-1.989-21.906l10.954-13.054l-7.731-6.487l-44.14,52.604c-6.68,0.489-12.508,0.499-19.185-3.587
							c2.632,5.366,5.066,11.301,9.728,14.858l-81.99,97.712c-6.204-1.639-10.528-3.597-16.565-7.496
							c-1.472,5.287,1.37,16.167,3.974,22.501l-84.416,100.604L625.79,1080.351z"/>
					</g>
					<g>
						<path fill="#202020" d="M428.729,1315.199c6.097,2.265,14.716,3.849,18.011,2.806c-3.775-2.434-6.512-9.341-7.683-15.114
							l83.46-99.464c5.139,2.393,11.757,2.703,16.762,2.003c-4.372-4.884-6.066-8.953-6.169-14.628l68.96-82.183
							c4.474,2.545,10.53,3.449,14.757,6.69c-0.917-6.266-3.336-14.822-1.989-21.906l10.954-13.054l-7.731-6.487l-44.14,52.604
							c-6.679,0.489-12.508,0.499-19.185-3.587c2.632,5.365,5.066,11.301,9.728,14.858l-81.99,97.712
							c-6.204-1.639-10.528-3.597-16.565-7.496c-1.472,5.287,1.37,16.167,3.974,22.501c0,0-143.028,175.598-141.695,176.717
							C329.519,1428.29,428.729,1315.199,428.729,1315.199z"/>
					</g>
				</g>
			</g>
		</g>
		<g>
			<g>
				<line x1="1598.798" y1="692.551" x2="60.3" y2="963.83"/>
				<g>
					<g>
						<path fill="#202020" d="M1224.085,764.715l54.44-9.599c3.215,5.654,8.799,12.408,11.993,13.727
							c-1.327-4.292,1.016-11.341,3.829-16.517l127.868-22.547c2.399,5.136,7.269,9.628,11.553,12.309
							c-0.21-6.551,1.108-10.758,4.677-15.171l105.652-18.629c0,0,14.517-2.56,19.562-3.449c5.044-0.889,37.174-0.754,37.174-0.754
							l-3.737-21.19c0,0-30.401,11.161-36.273,12.196c-5.871,1.035-49.761,8.774-49.762,8.774
							c-5.431-3.919-9.902-7.658-12.391-15.08c-1.433,5.802-3.383,11.914-2.098,17.635l-125.617,22.15
							c-3.699-5.243-5.753-9.523-7.871-16.39c-4.526,3.104-9.342,13.266-11.419,19.792l-129.334,22.805L1224.085,764.715z"/>
					</g>
					<g>
						<path fill="#202020" d="M867.73,827.548l54.439-9.599c3.215,5.654,8.799,12.408,11.993,13.727
							c-1.327-4.292,1.016-11.341,3.829-16.517l127.868-22.547c2.399,5.136,7.269,9.628,11.553,12.309
							c-0.21-6.551,1.108-10.758,4.677-15.171l105.652-18.629c1.792,4.825,5.849,9.411,7.005,14.61
							c3.325-5.39,6.972-13.498,12.557-18.06l16.782-2.959l-1.752-9.939l-67.626,11.924c-5.431-3.919-9.902-7.658-12.391-15.08
							c-1.433,5.802-3.384,11.914-2.098,17.635l-125.617,22.15c-3.699-5.243-5.753-9.523-7.871-16.39
							c-4.526,3.104-9.342,13.266-11.419,19.792l-129.333,22.805L867.73,827.548z"/>
					</g>
					<g>
						<path fill="#202020" d="M511.375,890.383l54.44-9.599c3.215,5.654,8.799,12.408,11.993,13.727
							c-1.327-4.292,1.016-11.341,3.829-16.517l127.868-22.547c2.399,5.136,7.269,9.628,11.553,12.309
							c-0.21-6.551,1.108-10.758,4.677-15.171l105.652-18.629c1.792,4.825,5.849,9.411,7.004,14.611
							c3.325-5.39,6.972-13.498,12.557-18.06l16.782-2.959l-1.753-9.939l-67.626,11.924c-5.431-3.919-9.902-7.658-12.391-15.08
							c-1.433,5.802-3.383,11.914-2.098,17.635l-125.616,22.15c-3.699-5.243-5.753-9.523-7.871-16.39
							c-4.526,3.104-9.342,13.265-11.419,19.791l-129.333,22.805L511.375,890.383z"/>
					</g>
					<g>
						<path fill="#202020" d="M209.46,943.619c3.215,5.654,8.799,12.408,11.993,13.727c-1.327-4.292,1.016-11.341,3.829-16.517
							l127.868-22.547c2.399,5.137,7.269,9.628,11.553,12.309c-0.21-6.551,1.108-10.758,4.677-15.171l105.652-18.629
							c1.792,4.825,5.849,9.411,7.004,14.61c3.325-5.39,6.972-13.498,12.557-18.06l16.782-2.959l-1.752-9.939l-67.626,11.924
							c-5.431-3.919-9.902-7.658-12.391-15.08c-1.433,5.802-3.383,11.914-2.098,17.635l-125.616,22.15
							c-3.699-5.243-5.753-9.523-7.871-16.39c-4.526,3.104-9.342,13.266-11.419,19.792c0,0-222.438,42.58-222.136,44.293
							C60.767,966.481,209.46,943.619,209.46,943.619z"/>
					</g>
				</g>
			</g>
		</g>
		<g>
			<g>
				<line x1="1506.016" y1="1218.748" x2="153.082" y2="437.632"/>
				<g>
					<g>
						<path fill="#202020" d="M1172.582,1033.168l47.873,27.64c-1.172,6.398-1.235,15.16,0.364,18.224
							c1.742-4.141,8.068-8.035,13.55-10.191l112.445,64.92c-1.464,5.477-0.62,12.048,0.938,16.855
							c4.05-5.153,7.764-7.528,13.334-8.615l92.909,53.641c0,0,12.766,7.371,17.202,9.932s28.962,23.317,28.962,23.317
							l10.759-18.635c0,0-30.463-10.992-35.626-13.973c-5.163-2.981-43.759-25.265-43.76-25.265
							c-1.641-6.493-2.663-12.232,0.201-19.517c-4.827,3.524-10.25,6.952-12.943,12.16l-110.465-63.777
							c0.537-6.395,1.714-10.993,4.506-17.615c-5.462-0.531-15.683,4.157-21.469,7.821l-113.734-65.664L1172.582,1033.168z"/>
					</g>
					<g>
						<path fill="#202020" d="M859.21,852.24l47.873,27.64c-1.172,6.398-1.235,15.161,0.364,18.224
							c1.742-4.141,8.068-8.035,13.55-10.191l112.445,64.92c-1.464,5.477-0.62,12.048,0.938,16.855
							c4.05-5.153,7.764-7.528,13.334-8.616l92.909,53.641c-1.729,4.848-1.568,10.969-4.026,15.695
							c6.012-1.992,14.017-5.859,21.228-5.763l14.758,8.521l5.046-8.74l-59.47-34.335c-1.641-6.493-2.663-12.232,0.201-19.517
							c-4.827,3.524-10.25,6.951-12.943,12.16l-110.465-63.777c0.537-6.394,1.714-10.993,4.506-17.615
							c-5.462-0.531-15.683,4.157-21.469,7.821L864.256,843.5L859.21,852.24z"/>
					</g>
					<g>
						<path fill="#202020" d="M545.837,671.314l47.873,27.64c-1.172,6.398-1.235,15.161,0.364,18.224
							c1.742-4.141,8.068-8.035,13.55-10.191l112.445,64.92c-1.464,5.477-0.62,12.048,0.938,16.855
							c4.05-5.153,7.764-7.528,13.334-8.615l92.909,53.641c-1.729,4.848-1.569,10.969-4.026,15.695
							c6.012-1.992,14.017-5.859,21.228-5.763l14.758,8.52l5.046-8.74l-59.47-34.335c-1.641-6.493-2.663-12.232,0.201-19.517
							c-4.827,3.524-10.25,6.952-12.943,12.16L681.58,738.032c0.537-6.394,1.714-10.993,4.506-17.615
							c-5.462-0.531-15.683,4.157-21.469,7.821l-113.734-65.664L545.837,671.314z"/>
					</g>
					<g>
						<path fill="#202020" d="M280.337,518.028c-1.172,6.398-1.235,15.161,0.364,18.224c1.742-4.141,8.068-8.035,13.55-10.191
							l112.445,64.92c-1.464,5.477-0.62,12.048,0.938,16.855c4.05-5.153,7.764-7.529,13.334-8.616l92.909,53.641
							c-1.729,4.848-1.569,10.969-4.026,15.695c6.012-1.992,14.017-5.859,21.228-5.763l14.758,8.52l5.046-8.74l-59.47-34.335
							c-1.641-6.493-2.663-12.232,0.201-19.517c-4.827,3.524-10.25,6.952-12.943,12.16l-110.465-63.777
							c0.537-6.394,1.714-10.993,4.506-17.615c-5.462-0.531-15.683,4.157-21.469,7.821c0,0-197.767-110.363-198.637-108.856
							C151.736,439.963,280.337,518.028,280.337,518.028z"/>
					</g>
				</g>
			</g>
		</g>
		<g>
			<g>
				<line x1="1096.706" y1="1562.199" x2="562.391" y2="94.181"/>
				<g>
					<g>
						<path fill="#202020" d="M960.57,1205.71l18.907,51.945c-5.01,4.148-10.691,10.82-11.436,14.194
							c3.996-2.052,11.345-0.969,16.931,0.903l44.408,122.01c-4.642,3.254-8.219,8.831-10.116,13.515
							c6.415-1.344,10.787-0.777,15.753,1.971l36.693,100.812c0,0,5.042,13.852,6.794,18.665c1.752,4.813,7.198,36.479,7.198,36.479
							l20.22-7.359c0,0-16.271-28.002-18.31-33.604c-2.039-5.602-17.282-47.482-17.282-47.482
							c2.917-6.029,5.823-11.082,12.699-14.821c-5.963-0.403-12.32-1.263-17.731,0.996l-43.626-119.862
							c4.521-4.553,8.379-7.319,14.774-10.597c-3.843-3.918-14.686-6.897-21.474-7.809l-44.917-123.408L960.57,1205.71z"/>
					</g>
					<g>
						<path fill="#202020" d="M836.811,865.679l18.907,51.945c-5.01,4.148-10.691,10.82-11.436,14.194
							c3.996-2.052,11.345-0.969,16.931,0.903l44.408,122.01c-4.642,3.254-8.219,8.831-10.116,13.515
							c6.415-1.344,10.787-0.777,15.753,1.971l36.693,100.812c-4.441,2.602-8.252,7.394-13.172,9.435
							c5.885,2.339,14.504,4.522,19.966,9.23l5.828,16.013l9.484-3.452l-23.486-64.528c2.917-6.029,5.822-11.082,12.699-14.821
							c-5.963-0.403-12.32-1.263-17.731,0.996l-43.626-119.862c4.521-4.553,8.379-7.319,14.774-10.597
							c-3.843-3.918-14.686-6.897-21.474-7.809l-44.917-123.408L836.811,865.679z"/>
					</g>
					<g>
						<path fill="#202020" d="M713.05,525.65l18.907,51.945c-5.01,4.148-10.691,10.82-11.436,14.194
							c3.996-2.052,11.345-0.969,16.931,0.903l44.408,122.01c-4.642,3.254-8.219,8.831-10.116,13.515
							c6.415-1.344,10.787-0.777,15.753,1.971l36.693,100.812c-4.441,2.602-8.252,7.394-13.172,9.435
							c5.886,2.339,14.504,4.522,19.966,9.23l5.828,16.013l9.484-3.452l-23.486-64.528c2.917-6.029,5.822-11.082,12.699-14.821
							c-5.963-0.403-12.32-1.263-17.731,0.996l-43.626-119.862c4.521-4.553,8.379-7.319,14.774-10.597
							c-3.843-3.918-14.686-6.897-21.474-7.809l-44.917-123.409L713.05,525.65z"/>
					</g>
					<g>
						<path fill="#202020" d="M608.196,237.565c-5.01,4.148-10.691,10.82-11.436,14.194c3.996-2.052,11.345-0.969,16.931,0.903
							l44.408,122.01c-4.642,3.254-8.219,8.831-10.116,13.515c6.415-1.344,10.787-0.777,15.753,1.971l36.693,100.812
							c-4.441,2.602-8.252,7.394-13.172,9.435c5.886,2.339,14.504,4.522,19.966,9.23l5.828,16.013l9.484-3.452l-23.486-64.528
							c2.917-6.029,5.822-11.082,12.699-14.821c-5.963-0.403-12.32-1.263-17.731,0.996L650.39,323.982
							c4.521-4.553,8.379-7.319,14.774-10.597c-3.843-3.918-14.686-6.897-21.474-7.809c0,0-80.559-211.665-82.193-211.07
							C559.862,95.102,608.196,237.565,608.196,237.565z"/>
					</g>
				</g>
			</g>
		</g>
		<g>
			<g>
				<line x1="562.391" y1="1562.199" x2="1096.706" y2="94.181"/>
				<g>
					<g>
						<path fill="#202020" d="M687.252,1201.606l-18.907,51.946c-6.504-0.043-15.145,1.416-17.884,3.523
							c4.38,0.996,9.314,6.55,12.389,11.574l-44.408,122.01c-5.648-0.491-11.973,1.481-16.437,3.85
							c5.778,3.094,8.762,6.339,10.8,11.636l-36.693,100.812c0,0-5.042,13.852-6.794,18.665
							c-1.752,4.813-17.934,32.571-17.934,32.571l20.22,7.359c0,0,5.535-31.909,7.574-37.511
							c2.039-5.602,17.282-47.482,17.282-47.482c6.11-2.744,11.583-4.747,19.255-3.191c-4.308-4.142-8.626-8.887-14.223-10.634
							l43.626-119.862c6.391-0.582,11.124-0.221,18.13,1.379c-0.425-5.471-6.817-14.724-11.431-19.785l44.917-123.409
							L687.252,1201.606z"/>
					</g>
					<g>
						<path fill="#202020" d="M811.014,861.577l-18.907,51.946c-6.504-0.043-15.145,1.416-17.884,3.523
							c4.38,0.996,9.314,6.55,12.389,11.575l-44.408,122.01c-5.648-0.491-11.973,1.481-16.437,3.85
							c5.778,3.094,8.762,6.339,10.8,11.636l-36.693,100.812c-5.075-0.861-11.075,0.36-16.155-1.239
							c3.005,5.575,8.204,12.787,9.362,19.905l-5.828,16.013l9.484,3.452l23.486-64.528c6.11-2.743,11.584-4.747,19.255-3.191
							c-4.308-4.142-8.626-8.887-14.223-10.634l43.626-119.862c6.39-0.582,11.124-0.221,18.13,1.379
							c-0.425-5.471-6.817-14.723-11.431-19.785l44.917-123.409L811.014,861.577z"/>
					</g>
					<g>
						<path fill="#202020" d="M934.775,521.547l-18.907,51.946c-6.504-0.043-15.145,1.416-17.884,3.523
							c4.38,0.996,9.314,6.55,12.389,11.575L865.966,710.6c-5.648-0.491-11.973,1.481-16.437,3.85
							c5.778,3.094,8.762,6.339,10.8,11.636l-36.693,100.812c-5.075-0.861-11.075,0.36-16.155-1.239
							c3.005,5.575,8.204,12.787,9.362,19.905l-5.828,16.013l9.484,3.452l23.486-64.528c6.11-2.744,11.584-4.747,19.255-3.191
							c-4.308-4.142-8.626-8.887-14.223-10.634l43.626-119.862c6.39-0.582,11.124-0.221,18.13,1.379
							c-0.425-5.471-6.817-14.723-11.431-19.785l44.917-123.409L934.775,521.547z"/>
					</g>
					<g>
						<path fill="#202020" d="M1039.629,233.463c-6.504-0.043-15.145,1.416-17.884,3.523c4.38,0.996,9.314,6.55,12.389,11.575
							l-44.408,122.01c-5.648-0.491-11.973,1.481-16.437,3.85c5.778,3.094,8.762,6.339,10.8,11.636l-36.693,100.812
							c-5.075-0.861-11.075,0.36-16.155-1.239c3.005,5.575,8.204,12.787,9.362,19.905l-5.828,16.013l9.484,3.452l23.486-64.528
							c6.11-2.744,11.584-4.747,19.255-3.191c-4.308-4.142-8.626-8.887-14.223-10.634l43.626-119.862
							c6.39-0.582,11.123-0.221,18.13,1.379c-0.425-5.471-6.817-14.723-11.431-19.785c0,0,74.344-213.927,72.71-214.522
							C1094.177,93.26,1039.629,233.463,1039.629,233.463z"/>
					</g>
				</g>
			</g>
		</g>
		<g>
			<g>
				<line x1="153.082" y1="1218.748" x2="1506.016" y2="437.632"/>
				<g>
					<g>
						<path fill="#202020" d="M480.516,1022.776l-47.873,27.64c-4.955-4.214-12.512-8.65-15.965-8.797
							c2.715,3.579,2.924,11.005,2.051,16.83l-112.445,64.92c-4.011-4.006-10.124-6.561-15.066-7.616
							c2.438,6.084,2.638,10.488,0.794,15.856l-92.909,53.641c0,0-12.766,7.371-17.202,9.932
							c-4.436,2.561-34.674,13.423-34.674,13.423l10.759,18.635c0,0,24.751-20.886,29.914-23.867
							c5.163-2.981,43.759-25.265,43.76-25.265c6.444,1.826,11.925,3.81,16.801,9.932c-0.638-5.942-0.895-12.352-4.06-17.289
							l110.465-63.777c5.269,3.662,8.663,6.981,13.002,12.71c3.191-4.465,4.242-15.661,3.961-22.504l113.734-65.664
							L480.516,1022.776z"/>
					</g>
					<g>
						<path fill="#202020" d="M793.89,841.852l-47.873,27.64c-4.955-4.214-12.512-8.65-15.964-8.797
							c2.715,3.579,2.924,11.005,2.051,16.83l-112.445,64.92c-4.011-4.006-10.124-6.561-15.066-7.616
							c2.438,6.084,2.638,10.488,0.794,15.856l-92.909,53.641c-3.334-3.921-8.715-6.843-11.579-11.334
							c-1.281,6.202-1.935,15.068-5.623,21.265l-14.758,8.52l5.046,8.74l59.47-34.335c6.444,1.826,11.925,3.81,16.801,9.933
							c-0.638-5.942-0.895-12.352-4.06-17.289L668.24,926.05c5.269,3.662,8.663,6.981,13.002,12.71
							c3.191-4.464,4.242-15.661,3.961-22.503l113.734-65.664L793.89,841.852z"/>
					</g>
					<g>
						<path fill="#202020" d="M1107.263,660.926l-47.873,27.64c-4.955-4.214-12.512-8.65-15.965-8.797
							c2.715,3.579,2.924,11.004,2.051,16.83l-112.445,64.92c-4.011-4.006-10.124-6.561-15.066-7.616
							c2.438,6.084,2.638,10.488,0.794,15.856L825.85,823.4c-3.334-3.921-8.715-6.843-11.579-11.334
							c-1.281,6.202-1.935,15.069-5.623,21.265l-14.758,8.52l5.046,8.74l59.469-34.335c6.444,1.826,11.925,3.81,16.801,9.933
							c-0.638-5.942-0.895-12.352-4.06-17.289l110.465-63.777c5.269,3.662,8.663,6.981,13.002,12.71
							c3.191-4.465,4.242-15.661,3.961-22.503l113.734-65.664L1107.263,660.926z"/>
					</g>
					<g>
						<path fill="#202020" d="M1372.763,507.639c-4.955-4.214-12.512-8.65-15.965-8.797c2.715,3.579,2.924,11.004,2.051,16.83
							l-112.445,64.92c-4.011-4.006-10.124-6.561-15.066-7.616c2.438,6.084,2.638,10.488,0.794,15.856l-92.909,53.641
							c-3.334-3.921-8.715-6.843-11.579-11.334c-1.281,6.202-1.935,15.068-5.623,21.265l-14.758,8.52l5.046,8.74l59.469-34.335
							c6.444,1.826,11.925,3.81,16.801,9.933c-0.638-5.942-0.895-12.352-4.06-17.289l110.465-63.777
							c5.269,3.662,8.663,6.981,13.002,12.71c3.191-4.464,4.242-15.661,3.961-22.503c0,0,194.461-116.09,193.591-117.597
							C1504.669,435.301,1372.763,507.639,1372.763,507.639z"/>
					</g>
				</g>
			</g>
		</g>
		<g>
			<g>
				<line x1="60.3" y1="692.551" x2="1598.798" y2="963.83"/>
				<g>
					<g>
						<path fill="#202020" d="M437.097,752.898l-54.439-9.599c-1.087-6.413-4.025-14.669-6.575-17.001
							c-0.22,4.487-4.833,10.31-9.247,14.211l-127.868-22.547c-0.497-5.647-3.538-11.534-6.646-15.518
							c-2.044,6.228-4.721,9.73-9.584,12.657l-105.652-18.629c0,0-14.517-2.56-19.562-3.449c-5.044-0.889-35.19-12.006-35.19-12.006
							l-3.736,21.191c0,0,32.385-0.09,38.257,0.945c5.871,1.035,49.761,8.774,49.762,8.774c3.763,5.54,6.686,10.583,6.486,18.408
							c3.331-4.962,7.254-10.038,8.003-15.854l125.617,22.15c1.683,6.192,2.149,10.916,1.79,18.094
							c5.314-1.369,13.316-9.27,17.499-14.693l129.333,22.805L437.097,752.898z"/>
					</g>
					<g>
						<path fill="#202020" d="M793.451,815.735l-54.44-9.599c-1.087-6.413-4.024-14.669-6.575-17.001
							c-0.22,4.487-4.833,10.31-9.247,14.211l-127.868-22.547c-0.497-5.647-3.538-11.534-6.646-15.518
							c-2.043,6.228-4.721,9.73-9.583,12.657L473.44,759.308c-0.033-5.147-2.278-10.844-1.585-16.125
							c-4.968,3.928-11.168,10.299-17.977,12.676l-16.782-2.959l-1.753,9.939l67.626,11.924c3.763,5.54,6.686,10.583,6.486,18.408
							c3.331-4.962,7.254-10.038,8.003-15.854l125.617,22.15c1.683,6.192,2.149,10.916,1.79,18.094
							c5.314-1.369,13.316-9.27,17.499-14.693l129.333,22.805L793.451,815.735z"/>
					</g>
					<g>
						<path fill="#202020" d="M1149.806,878.57l-54.439-9.599c-1.087-6.413-4.025-14.669-6.575-17.001
							c-0.22,4.487-4.833,10.31-9.247,14.211l-127.868-22.547c-0.497-5.647-3.538-11.534-6.646-15.518
							c-2.044,6.228-4.721,9.73-9.583,12.656l-105.652-18.629c-0.033-5.147-2.278-10.844-1.585-16.125
							c-4.968,3.928-11.168,10.299-17.977,12.676l-16.782-2.959l-1.753,9.939l67.626,11.924c3.763,5.54,6.686,10.583,6.486,18.408
							c3.331-4.962,7.254-10.038,8.003-15.854l125.616,22.15c1.683,6.192,2.149,10.916,1.79,18.094
							c5.314-1.369,13.316-9.27,17.499-14.693l129.334,22.805L1149.806,878.57z"/>
					</g>
					<g>
						<path fill="#202020" d="M1451.721,931.806c-1.087-6.413-4.024-14.669-6.575-17.001c-0.22,4.487-4.833,10.31-9.247,14.211
							l-127.868-22.547c-0.497-5.647-3.538-11.533-6.646-15.518c-2.044,6.228-4.721,9.73-9.584,12.657l-105.652-18.629
							c-0.033-5.147-2.278-10.844-1.585-16.125c-4.968,3.928-11.168,10.299-17.977,12.676l-16.782-2.959l-1.752,9.939l67.626,11.924
							c3.763,5.54,6.686,10.583,6.486,18.408c3.331-4.962,7.254-10.038,8.003-15.854l125.617,22.15
							c1.683,6.192,2.149,10.916,1.79,18.094c5.314-1.369,13.316-9.27,17.499-14.692c0,0,223.587,36.067,223.889,34.354
							C1599.266,961.178,1451.721,931.806,1451.721,931.806z"/>
					</g>
				</g>
			</g>
		</g>
		<g>
			<g>
				<line x1="327.457" y1="229.82" x2="1331.641" y2="1426.56"/>
				<g>
					<g>
						<path fill="#202020" d="M577.31,518.249l-35.533-42.346c3.289-5.611,6.346-13.824,5.891-17.25
							c-3.053,3.295-10.33,4.791-16.219,4.942l-83.46-99.464c3.249-4.645,4.703-11.109,4.884-16.16
							c-5.569,3.457-9.871,4.419-15.477,3.535l-68.96-82.183c0,0-9.476-11.293-12.768-15.216
							c-3.292-3.924-19.24-31.817-19.24-31.817l-16.483,13.831c0,0,24.867,20.748,28.699,25.315
							c3.832,4.567,32.479,38.708,32.48,38.708c-0.679,6.663-1.681,12.405-6.864,18.271c5.741-1.66,12.009-3.027,16.321-7
							l81.99,97.712c-2.691,5.825-5.371,9.743-10.259,15.012c4.951,2.367,16.159,1.458,22.849-0.007l84.416,100.604L577.31,518.249z
							"/>
					</g>
					<g>
						<path fill="#202020" d="M809.903,795.446l-35.533-42.346c3.289-5.611,6.346-13.824,5.891-17.25
							c-3.053,3.295-10.33,4.791-16.219,4.942l-83.46-99.464c3.249-4.645,4.703-11.109,4.884-16.16
							c-5.569,3.457-9.871,4.419-15.477,3.535l-68.96-82.183c3.283-3.964,5.226-9.771,9.151-13.371
							c-6.33-0.185-15.176,0.711-21.919-1.845l-10.954-13.054l-7.731,6.487l44.14,52.604c-0.679,6.663-1.681,12.405-6.864,18.271
							c5.741-1.66,12.009-3.027,16.321-7l81.99,97.712c-2.691,5.825-5.371,9.743-10.259,15.011
							c4.951,2.367,16.159,1.458,22.849-0.007l84.416,100.604L809.903,795.446z"/>
					</g>
					<g>
						<path fill="#202020" d="M1042.497,1072.641l-35.533-42.347c3.289-5.611,6.346-13.824,5.891-17.25
							c-3.053,3.295-10.33,4.791-16.219,4.942l-83.46-99.464c3.249-4.646,4.703-11.109,4.884-16.16
							c-5.569,3.457-9.871,4.419-15.477,3.535l-68.96-82.183c3.283-3.964,5.226-9.771,9.151-13.371
							c-6.331-0.185-15.176,0.711-21.919-1.845l-10.954-13.054l-7.731,6.487l44.14,52.604c-0.679,6.663-1.681,12.405-6.864,18.271
							c5.741-1.66,12.009-3.027,16.321-7l81.99,97.712c-2.691,5.825-5.371,9.743-10.259,15.012
							c4.951,2.367,16.159,1.458,22.849-0.007l84.416,100.604L1042.497,1072.641z"/>
					</g>
					<g>
						<path fill="#202020" d="M1239.558,1307.489c3.289-5.611,6.346-13.824,5.891-17.25c-3.053,3.295-10.329,4.791-16.219,4.942
							l-83.46-99.464c3.249-4.645,4.703-11.109,4.884-16.16c-5.569,3.457-9.871,4.419-15.477,3.535l-68.959-82.183
							c3.283-3.964,5.226-9.771,9.151-13.371c-6.331-0.185-15.176,0.711-21.919-1.845l-10.953-13.054l-7.731,6.487l44.14,52.604
							c-0.679,6.663-1.681,12.405-6.864,18.271c5.741-1.66,12.009-3.026,16.321-7l81.99,97.712
							c-2.691,5.825-5.371,9.743-10.259,15.011c4.951,2.367,16.159,1.458,22.849-0.007c0,0,148.094,171.347,149.427,170.229
							C1333.703,1424.829,1239.558,1307.489,1239.558,1307.489z"/>
					</g>
				</g>
			</g>
		</g>
		<g>
			<g>
				<line x1="829.549" y1="47.074" x2="829.549" y2="1609.306"/>
				<g>
					<g>
						<path fill="#202020" d="M835.549,428.626v-55.279c6.126-2.184,13.747-6.511,15.601-9.427
							c-4.457,0.562-10.992-2.97-15.601-6.639V227.439c5.475-1.47,10.744-5.487,14.128-9.24c-6.488-0.931-10.402-2.96-14.128-7.24
							V103.678c0,0,0-14.741,0-19.863c0-5.122,5.713-36.74,5.713-36.74h-21.517c0,0,5.712,31.878,5.712,37.84
							c0,5.962,0,50.529,0,50.53c-4.803,4.668-9.262,8.422-17.002,9.584c5.465,2.418,11.145,5.401,17.002,5.128V277.71
							c-5.806,2.732-10.377,4.012-17.508,4.905c2.271,4.996,11.442,11.504,17.508,14.682v131.329H835.549z"/>
					</g>
					<g>
						<path fill="#202020" d="M835.547,790.478v-55.279c6.126-2.184,13.747-6.511,15.601-9.427
							c-4.457,0.562-10.992-2.97-15.601-6.639V589.292c5.475-1.47,10.744-5.487,14.128-9.24c-6.488-0.931-10.402-2.96-14.128-7.24
							V465.53c5.063-0.927,10.284-4.126,15.605-4.361c-4.731-4.211-12.082-9.21-15.605-15.502v-17.041h-10.092v68.669
							c-4.803,4.668-9.262,8.422-17.003,9.584c5.465,2.418,11.145,5.401,17.003,5.128v127.554
							c-5.806,2.732-10.377,4.012-17.508,4.905c2.271,4.996,11.442,11.504,17.508,14.682v131.329H835.547z"/>
					</g>
					<g>
						<path fill="#202020" d="M835.547,1152.33v-55.279c6.126-2.184,13.747-6.51,15.601-9.427
							c-4.457,0.562-10.992-2.97-15.601-6.639V951.144c5.475-1.47,10.744-5.487,14.128-9.24c-6.488-0.931-10.402-2.96-14.128-7.24
							V827.382c5.063-0.927,10.284-4.126,15.605-4.361c-4.731-4.211-12.082-9.21-15.605-15.502v-17.041h-10.092v68.669
							c-4.803,4.668-9.262,8.422-17.003,9.584c5.465,2.418,11.145,5.401,17.003,5.128v127.554
							c-5.806,2.732-10.377,4.012-17.508,4.905c2.271,4.996,11.442,11.504,17.508,14.682v131.328H835.547z"/>
					</g>
					<g>
						<path fill="#202020" d="M835.547,1458.903c6.126-2.184,13.747-6.511,15.601-9.427c-4.457,0.562-10.992-2.97-15.601-6.639
							v-129.841c5.475-1.47,10.744-5.487,14.128-9.24c-6.488-0.931-10.402-2.96-14.128-7.24v-107.282
							c5.063-0.927,10.284-4.126,15.605-4.361c-4.731-4.211-12.082-9.21-15.605-15.502v-17.041h-10.092V1221
							c-4.803,4.668-9.262,8.422-17.003,9.584c5.465,2.418,11.145,5.401,17.003,5.128v127.554
							c-5.806,2.732-10.377,4.012-17.508,4.905c2.271,4.996,11.442,11.504,17.508,14.682c0,0,3.307,226.453,5.046,226.453
							C832.241,1609.306,835.547,1458.903,835.547,1458.903z"/>
					</g>
				</g>
			</g>
		</g>
	</g>
	<g>
		<g>
			<path fill="#202020" d="M1538.7,1169.69c0,0,0.368-0.759,0.989-2.097c0.624-1.337,1.516-3.247,2.586-5.539
				c2.139-4.584,5.038-10.675,7.681-16.883c1.352-3.09,2.703-6.18,3.97-9.077c1.274-2.894,2.334-5.649,3.308-7.984
				c1.913-4.683,3.189-7.805,3.189-7.805c3.15,0.113,6.859-0.131,10.092-0.684c3.217-0.558,5.992-1.409,7.345-2.443
				c-4.218-1.038-8.873-6.586-11.775-11.498c0,0,0.704-1.851,1.935-5.091c1.242-3.236,2.822-7.929,4.815-13.526
				c3.983-11.195,8.771-26.303,13.204-41.513c1.131-3.796,2.097-7.639,3.136-11.396c0.999-3.769,2.064-7.456,2.947-11.063
				c0.88-3.607,1.731-7.094,2.538-10.401c0.79-3.311,1.615-6.423,2.21-9.334c1.264-5.805,2.317-10.643,3.054-14.029
				c0.374-1.692,0.658-3.024,0.821-3.938c0.175-0.912,0.268-1.398,0.268-1.398c5.462-0.361,11.209-3.262,15.128-6.321
				c-5.994-2.073-9.339-4.736-12.102-9.479c0,0,0.088-0.4,0.21-1.157c0.125-0.757,0.309-1.866,0.543-3.279
				c0.468-2.825,1.137-6.861,1.939-11.703c0.2-1.211,0.409-2.472,0.625-3.777c0.185-1.31,0.377-2.664,0.574-4.056
				c0.39-2.785,0.801-5.722,1.226-8.761c0.399-3.042,0.922-6.171,1.252-9.376c0.366-3.2,0.738-6.452,1.109-9.703
				c0.35-3.254,0.792-6.498,1.059-9.708c0.285-3.209,0.565-6.366,0.837-9.422c0.269-3.056,0.528-6.01,0.775-8.812
				c0.178-2.806,0.346-5.46,0.502-7.909c0.31-4.899,0.569-8.981,0.75-11.838c0.109-2.861,0.171-4.496,0.171-4.496
				c4.927-0.676,10.094-3.618,15.247-3.654c-2.207-2.183-5.041-4.568-7.72-7.176c-2.672-2.609-5.191-5.439-6.884-8.545l0.21-16.63
				h-9.764c0,0-0.052,4.137-0.131,10.344c-0.049,3.103-0.063,6.724-0.156,10.602c-0.147,3.876-0.305,8.011-0.462,12.146
				c-0.078,2.067-0.157,4.135-0.234,6.17c-0.092,2.034-0.245,4.033-0.36,5.969c-0.245,3.871-0.474,7.484-0.671,10.581
				c-0.1,1.548-0.192,2.968-0.273,4.226c-0.112,1.256-0.209,2.35-0.289,3.252c-0.16,1.803-0.251,2.833-0.251,2.833
				c-5.028,4.093-9.64,7.255-17.191,7.628c5.069,2.775,10.271,6.176,15.917,6.497c0,0-0.876,7.635-2.191,19.088
				c-0.802,5.708-1.738,12.367-2.741,19.501c-0.589,3.554-1.197,7.226-1.816,10.958c-0.635,3.729-1.196,7.531-1.963,11.297
				c-1.479,7.541-2.795,15.115-4.414,22.137c-0.766,3.52-1.507,6.922-2.209,10.149c-0.676,3.233-1.494,6.248-2.153,9.053
				c-1.386,5.594-2.461,10.277-3.345,13.521c-0.878,3.245-1.38,5.1-1.38,5.1c-6.114,1.09-10.698,1.099-17.573,0.093
				c0.441,2.561,2.41,5.927,4.839,9.24c2.384,3.297,5.261,6.551,7.64,8.847c0,0-0.564,1.896-1.551,5.214
				c-0.493,1.659-1.093,3.673-1.78,5.984c-0.711,2.303-1.575,4.883-2.484,7.707c-0.916,2.822-1.909,5.879-2.958,9.113
				c-1.03,3.24-2.293,6.598-3.503,10.103c-1.242,3.495-2.482,7.121-3.822,10.778c-1.384,3.64-2.79,7.338-4.196,11.036
				c-0.703,1.849-1.406,3.698-2.106,5.54c-0.743,1.825-1.483,3.642-2.218,5.446c-1.473,3.605-2.922,7.153-4.325,10.586
				c-2.887,6.832-5.724,13.149-8.083,18.594c-5.019,10.755-8.365,17.925-8.365,17.925L1538.7,1169.69z"/>
		</g>
		<g>
			<path fill="#202020" d="M1320.167,1443.417c0,0,2.626-2.115,6.566-5.288c0.985-0.793,2.052-1.653,3.18-2.562
				c1.108-0.934,2.276-1.919,3.484-2.938c2.414-2.041,4.989-4.219,7.565-6.396c1.286-1.091,2.571-2.182,3.837-3.256
				c1.242-1.101,2.464-2.186,3.646-3.235c2.365-2.098,4.572-4.057,6.464-5.735c3.807-3.331,6.251-5.656,6.251-5.656
				c5.557,2.924,13.705,5.413,17.063,4.736c-3.356-2.769-5.119-9.757-5.589-15.425c0,0,5.66-5.542,14.149-13.854
				c2.075-2.125,4.323-4.427,6.701-6.862c1.189-1.218,2.41-2.469,3.658-3.747c1.256-1.272,2.523-2.586,3.776-3.955
				c2.53-2.718,5.144-5.526,7.801-8.379c1.32-1.434,2.684-2.849,3.993-4.325c1.309-1.475,2.624-2.956,3.938-4.438
				c2.629-2.963,5.257-5.925,7.844-8.841c2.518-2.976,4.996-5.905,7.394-8.74c4.85-5.625,9.134-11.075,12.871-15.693
				c3.766-4.595,6.739-8.555,8.851-11.302c2.109-2.75,3.313-4.322,3.313-4.322c5.083,2.061,11.6,2.013,16.4,0.923
				c-4.5-4.482-6.367-8.347-6.82-13.844c0,0,0.964-1.322,2.651-3.635c1.718-2.291,4.033-5.664,6.829-9.699
				c2.784-4.042,6.11-8.706,9.434-13.865c3.356-5.136,7.035-10.552,10.442-16.142c3.459-5.556,6.979-11.075,10.044-16.392
				c3.098-5.296,6.102-10.174,8.443-14.49c2.395-4.285,4.391-7.855,5.788-10.355c1.413-2.491,2.159-3.948,2.159-3.948
				c4.728,1.535,10.652,1.131,15.307,3.34c-2.099-5.876-6.039-13.496-6.304-20.512l7.402-14.896l-8.794-4.243
				c0,0-1.841,3.705-4.603,9.262c-0.69,1.389-1.438,2.895-2.229,4.487c-0.785,1.595-1.621,3.273-2.542,4.98
				c-1.81,3.431-3.741,7.09-5.672,10.749c-1.891,3.68-3.957,7.266-5.841,10.657c-1.893,3.386-3.659,6.546-5.173,9.254
				c-3.156,5.344-5.26,8.906-5.26,8.906c-6.293,1.502-11.786,2.36-18.765-0.607c3.311,4.68,6.475,9.987,11.433,12.746
				c0,0-1.017,1.63-2.798,4.482c-1.783,2.85-4.286,6.951-7.498,11.738c-3.186,4.803-6.801,10.475-10.967,16.356
				c-2.052,2.961-4.173,6.02-6.328,9.129c-2.225,3.059-4.486,6.166-6.746,9.274c-9.022,12.446-18.595,24.479-25.865,33.424
				c-1.786,2.263-3.518,4.258-5.025,6.05c-1.512,1.788-2.83,3.347-3.916,4.631c-2.171,2.568-3.411,4.035-3.411,4.035
				c-5.943-1.645-10.108-3.659-15.865-7.556c-1.458,4.951,1.069,15.473,3.375,21.716c0,0-1.294,1.497-3.67,4.015
				c-2.359,2.534-5.729,6.154-9.772,10.498c-4.118,4.273-8.963,9.22-14.16,14.512c-2.654,2.591-5.396,5.269-8.183,7.99
				c-1.393,1.36-2.797,2.732-4.207,4.108c-1.42,1.366-2.884,2.697-4.327,4.05c-2.896,2.696-5.792,5.392-8.642,8.045
				c-2.863,2.641-5.766,5.144-8.529,7.618c-2.788,2.447-5.427,4.876-8.029,7.064c-2.596,2.195-5.051,4.271-7.317,6.187
				c-2.272,1.908-4.329,3.689-6.198,5.212c-1.878,1.512-3.515,2.83-4.863,3.916c-2.696,2.171-4.237,3.412-4.237,3.412
				L1320.167,1443.417z"/>
		</g>
		<g>
			<path fill="#202020" d="M1004.69,1595.518c0,0,0.824-0.18,2.266-0.493c1.434-0.348,3.482-0.845,5.94-1.441
				c2.457-0.6,5.324-1.299,8.396-2.049c1.536-0.375,3.123-0.762,4.735-1.156c1.603-0.432,3.231-0.871,4.859-1.31
				c3.255-0.881,6.511-1.762,9.563-2.588c1.526-0.413,3.001-0.813,4.4-1.191c1.389-0.412,2.703-0.801,3.915-1.161
				c4.849-1.442,8.082-2.404,8.082-2.404c3.734,5.048,10.031,10.948,13.328,11.723c-1.818-3.943-0.386-11.054,1.641-16.4
				c0,0,1.884-0.612,5.18-1.682c1.644-0.546,3.658-1.161,5.937-1.955c2.277-0.802,4.845-1.706,7.647-2.693
				c2.802-0.987,5.837-2.056,9.048-3.187c3.183-1.206,6.54-2.477,10.012-3.792c3.461-1.344,7.079-2.629,10.68-4.124
				c3.609-1.475,7.276-2.973,10.942-4.47c1.829-0.759,3.676-1.477,5.483-2.266c1.807-0.79,3.608-1.578,5.394-2.359
				c3.572-1.563,7.087-3.101,10.489-4.589c6.731-3.138,13.013-6.066,18.398-8.577c5.32-2.644,9.754-4.847,12.858-6.389
				c1.552-0.771,2.771-1.377,3.602-1.79c0.824-0.428,1.263-0.657,1.263-0.657c3.685,4.044,9.533,6.723,14.364,7.876
				c-2.116-5.981-2.12-10.26-0.137-15.383c0,0,1.459-0.741,3.95-2.155c2.5-1.397,6.07-3.393,10.355-5.789
				c4.316-2.342,9.198-5.339,14.492-8.44c5.316-3.067,10.839-6.58,16.394-10.041c5.589-3.408,11.009-7.08,16.144-10.438
				c5.159-3.324,9.827-6.643,13.867-9.43c4.033-2.798,7.41-5.107,9.701-6.826c2.313-1.687,3.635-2.651,3.635-2.651
				c3.604,3.434,9.135,5.651,12.378,9.658c0.337-3.079,0.443-6.77,0.816-10.484c0.341-3.759,0.949-7.538,2.35-10.76
				c0,0,3.3-2.53,6.6-5.06c1.663-1.249,3.269-2.57,4.485-3.545c1.214-0.978,2.024-1.63,2.024-1.63l-6.093-7.63
				c0,0-0.806,0.649-2.215,1.784c-0.705,0.568-1.561,1.256-2.543,2.047c-1,0.767-2.129,1.632-3.361,2.576
				c-4.937,3.76-11.442,8.878-18.179,13.685c-3.354,2.422-6.66,4.912-9.845,7.126c-3.188,2.21-6.163,4.272-8.713,6.04
				c-5.076,3.572-8.555,5.812-8.555,5.812c-6.34-1.39-11.692-3.031-16.691-8.706c0.983,5.683,1.569,11.876,4.844,16.504
				c0,0-6.517,4.073-16.292,10.183c-4.965,2.927-10.757,6.343-16.964,10.002c-3.145,1.758-6.394,3.574-9.695,5.42
				c-1.651,0.923-3.315,1.853-4.985,2.787c-1.669,0.937-3.385,1.802-5.079,2.708c-3.398,1.793-6.797,3.586-10.142,5.351
				c-1.665,0.897-3.34,1.743-5.005,2.558c-1.66,0.825-3.3,1.64-4.913,2.441c-3.226,1.603-6.345,3.152-9.302,4.622
				c-2.992,1.397-5.821,2.718-8.432,3.937c-5.22,2.443-9.566,4.489-12.665,5.795c-3.08,1.348-4.84,2.117-4.84,2.117
				c-4.66-4.092-7.523-7.667-11.021-13.666c-3.402,3.959-5.743,14.39-6.37,21.016c0,0-1.831,0.748-5.036,2.057
				c-3.186,1.357-7.827,3.066-13.37,5.184c-2.778,1.043-5.769,2.222-8.965,3.38c-3.207,1.129-6.589,2.32-10.087,3.552
				c-6.968,2.547-14.532,4.878-22.049,7.347l-2.821,0.916l-2.837,0.847c-1.889,0.562-3.77,1.121-5.636,1.676
				c-3.736,1.1-7.399,2.227-10.968,3.237c-7.166,1.915-13.83,3.796-19.584,5.246c-5.765,1.407-10.569,2.579-13.932,3.4
				c-1.681,0.411-3.001,0.74-3.91,0.924c-0.906,0.197-1.389,0.302-1.389,0.302L1004.69,1595.518z"/>
		</g>
		<g>
			<path fill="#202020" d="M654.408,1595.518c0,0,3.295,0.717,8.238,1.794c2.472,0.537,5.356,1.163,8.445,1.835
				c3.105,0.595,6.417,1.23,9.73,1.865c3.313,0.632,6.626,1.264,9.731,1.856c3.119,0.517,6.03,1,8.526,1.413
				c4.991,0.827,8.318,1.378,8.318,1.378c1.173,6.244,4.328,14.082,6.955,16.273c0.067-4.344,4.43-10.118,8.568-14.041
				c0,0,1.961,0.274,5.393,0.754c3.437,0.445,8.36,0.971,14.261,1.657c5.895,0.747,12.805,1.295,20.201,1.96
				c1.849,0.164,3.729,0.331,5.632,0.5c1.905,0.151,3.836,0.252,5.781,0.382c3.891,0.246,7.843,0.497,11.796,0.747l2.963,0.188
				l2.961,0.116c1.971,0.075,3.934,0.15,5.882,0.224c3.895,0.148,7.729,0.293,11.439,0.434c7.424,0.094,14.354,0.182,20.294,0.257
				c11.879-0.15,19.799-0.25,19.799-0.25c1.559,5.268,5.657,10.195,9.503,13.331c0.697-6.308,2.555-10.168,6.57-13.928
				c0,0,1.635-0.062,4.496-0.171c2.857-0.18,6.94-0.437,11.838-0.746c2.449-0.155,5.103-0.324,7.909-0.501
				c2.801-0.245,5.756-0.503,8.812-0.771c3.056-0.271,6.213-0.552,9.422-0.837c3.211-0.259,6.455-0.707,9.708-1.055
				c6.502-0.744,13.011-1.44,19.079-2.358c3.038-0.425,5.975-0.836,8.761-1.226c1.393-0.196,2.747-0.386,4.057-0.57
				c1.305-0.216,2.567-0.425,3.777-0.625c4.843-0.802,8.879-1.471,11.703-1.939c1.412-0.234,2.522-0.418,3.279-0.544
				c0.758-0.12,1.158-0.206,1.158-0.206c1.746,4.653,5.754,9.028,6.927,14.044c3.289-5.293,6.779-13.193,12.115-17.701l16.254-3.538
				l-2.164-9.521c0,0-4.043,0.88-10.106,2.2c-6.046,1.407-14.195,2.857-22.316,4.439c-1.016,0.194-2.032,0.388-3.044,0.582
				c-1.016,0.168-2.029,0.336-3.033,0.502c-2.009,0.333-3.986,0.66-5.899,0.977c-3.827,0.632-7.399,1.222-10.46,1.727
				c-6.146,0.86-10.244,1.433-10.244,1.433c-5.096-3.982-9.193-7.754-11.219-15.045c-1.597,5.503-3.775,11.283-2.843,16.88
				c0,0-1.909,0.218-5.249,0.6c-3.344,0.35-8.104,1.012-13.852,1.462c-11.476,1.083-26.805,2.29-42.167,2.862
				c-3.84,0.146-7.68,0.292-11.46,0.436c-3.781,0.1-7.505,0.109-11.107,0.166c-3.602,0.042-7.085,0.083-10.387,0.121
				c-3.302-0.042-6.424-0.082-9.306-0.118c-5.764-0.086-10.568-0.088-13.927-0.267c-3.36-0.128-5.28-0.201-5.28-0.201
				c-2.424-5.713-3.453-10.178-4.005-17.102c-2.399,0.993-5.246,3.705-7.932,6.762c-2.684,3.062-5.215,6.594-6.923,9.426
				c0,0-1.974-0.125-5.429-0.344c-1.728-0.109-3.825-0.242-6.231-0.395c-2.402-0.211-5.111-0.448-8.067-0.708
				c-2.956-0.262-6.158-0.547-9.544-0.847c-1.695-0.135-3.431-0.319-5.204-0.533c-1.774-0.203-3.585-0.41-5.428-0.621
				c-3.685-0.422-7.493-0.858-11.362-1.3c-3.857-0.54-7.775-1.088-11.693-1.636c-7.85-1.008-15.637-2.422-22.96-3.608
				c-3.666-0.568-7.18-1.28-10.52-1.916c-3.339-0.64-6.496-1.245-9.41-1.803c-2.92-0.529-5.571-1.14-7.928-1.648
				c-2.356-0.513-4.409-0.96-6.1-1.328c-3.382-0.736-5.315-1.157-5.315-1.157L654.408,1595.518z"/>
		</g>
		<g>
			<path fill="#202020" d="M338.931,1443.417c0,0,0.657,0.529,1.806,1.454c1.155,0.918,2.773,2.27,4.794,3.791
				c4.026,3.062,9.339,7.219,14.747,11.248c5.459,3.961,10.877,7.979,15.007,10.899c4.157,2.882,6.929,4.803,6.929,4.803
				c-1.63,6.079-2.276,14.612-0.879,17.746c1.951-3.877,8.409-7.195,13.858-8.946c0,0,1.654,1.089,4.549,2.994
				c1.447,0.953,3.205,2.109,5.221,3.436c2.045,1.281,4.353,2.727,6.87,4.304c2.52,1.573,5.25,3.277,8.137,5.079
				c2.885,1.806,6.007,3.58,9.193,5.486c3.204,1.877,6.483,3.87,9.872,5.798c3.403,1.902,6.86,3.835,10.317,5.768
				c1.729,0.966,3.458,1.931,5.18,2.893c1.745,0.921,3.482,1.838,5.206,2.747c3.448,1.819,6.842,3.61,10.126,5.342
				c6.614,3.375,12.847,6.409,18.16,9.068c10.766,5.028,17.943,8.38,17.943,8.38c-0.871,5.4,0.674,11.641,2.781,16.136
				c3.364-5.38,6.712-8.048,11.958-9.688c0,0,0.375,0.164,1.078,0.471c0.701,0.311,1.732,0.761,3.062,1.293
				c2.651,1.083,6.438,2.63,10.982,4.487c4.523,1.91,9.893,3.905,15.627,6.088c2.873,1.076,5.82,2.249,8.855,3.329
				c3.039,1.07,6.125,2.158,9.212,3.245c3.093,1.07,6.161,2.213,9.225,3.205c3.064,0.995,6.08,1.974,8.998,2.922
				c2.92,0.942,5.743,1.853,8.419,2.716c2.696,0.802,5.244,1.56,7.597,2.26c4.708,1.389,8.619,2.591,11.378,3.357
				c2.764,0.748,4.344,1.176,4.344,1.176c-0.439,4.956,1.279,10.653,0.167,15.685c5.253-3.344,11.785-8.844,18.584-10.753
				c0,0,4.04,0.986,8.08,1.972c2.02,0.493,4.04,0.985,5.555,1.354c1.524,0.332,2.54,0.553,2.54,0.553l2.164-9.521
				c0,0-1.01-0.222-2.778-0.611c-1.758-0.429-4.27-1.042-7.285-1.778c-3.015-0.736-6.531-1.594-10.299-2.513
				c-3.755-0.969-7.74-2.082-11.737-3.153c-8.012-2.073-15.908-4.556-21.864-6.297c-1.487-0.442-2.85-0.848-4.058-1.207
				c-1.199-0.388-2.245-0.727-3.106-1.006c-1.722-0.559-2.705-0.878-2.705-0.878c-2.866-5.816-4.917-11.017-3.592-18.46
				c-3.839,4.327-8.312,8.623-9.888,14.055c0,0-7.244-2.565-18.11-6.412c-5.379-2.069-11.691-4.393-18.389-7.043
				c-3.335-1.362-6.781-2.77-10.282-4.201c-1.751-0.715-3.515-1.436-5.287-2.16c-1.754-0.766-3.514-1.535-5.275-2.304
				c-3.52-1.54-7.041-3.08-10.506-4.596c-3.464-1.518-6.81-3.153-10.083-4.658c-3.26-1.532-6.428-2.98-9.403-4.411
				c-2.957-1.47-5.753-2.859-8.334-4.142c-2.581-1.282-4.947-2.458-7.043-3.5c-2.091-1.054-3.882-2.035-5.373-2.811
				c-2.974-1.569-4.673-2.465-4.673-2.465c0.301-6.192,1.316-10.657,3.833-17.128c-1.301-0.067-2.884,0.198-4.609,0.671
				c-1.714,0.453-3.576,1.129-5.454,1.927c-3.754,1.597-7.575,3.683-10.349,5.494c0,0-1.727-0.965-4.748-2.654
				c-0.755-0.423-1.591-0.89-2.502-1.4c-0.898-0.531-1.869-1.105-2.907-1.719c-2.075-1.227-4.417-2.611-6.971-4.121
				c-10.248-5.989-23.605-14.485-36.78-23.251c-3.283-2.207-6.512-4.495-9.719-6.703c-3.19-2.233-6.38-4.361-9.352-6.581
				c-2.997-2.186-5.894-4.298-8.641-6.302c-1.372-1.004-2.706-1.98-3.997-2.925c-1.269-0.973-2.496-1.914-3.673-2.816
				c-4.706-3.616-8.627-6.629-11.373-8.738c-2.696-2.172-4.237-3.412-4.237-3.412L338.931,1443.417z"/>
		</g>
		<g>
			<path fill="#202020" d="M120.398,1169.69c0,0,1.501,3.02,3.752,7.551c1.126,2.265,2.439,4.908,3.846,7.739
				c1.405,2.832,3.029,5.789,4.587,8.78c1.574,2.983,3.148,5.965,4.623,8.762c1.506,2.78,2.972,5.341,4.198,7.553
				c2.468,4.416,4.114,7.359,4.114,7.359c-4.147,4.805-8.331,12.17-8.399,15.585c3.439-2.655,10.674-2.841,16.321-2.051
				c0,0,1.008,1.705,2.772,4.688c1.832,2.942,4.448,7.145,7.588,12.188c0.787,1.26,1.606,2.572,2.454,3.93
				c0.854,1.355,1.783,2.725,2.713,4.151c1.871,2.843,3.845,5.841,5.886,8.943c2.009,3.123,4.227,6.255,6.444,9.462
				c2.224,3.202,4.483,6.455,6.742,9.709c9.265,12.85,18.793,25.511,26.266,34.749c3.739,4.616,6.803,8.506,9.034,11.157
				c2.237,2.646,3.516,4.159,3.516,4.159c-3.132,4.499-4.468,10.814-4.54,15.799c5.354-3.386,9.499-4.318,15.002-3.581
				c0,0,1.086,1.224,2.986,3.366c1.914,2.13,4.586,5.228,7.903,8.846c3.344,3.593,7.246,7.784,11.427,12.275
				c4.284,4.392,8.854,9.077,13.424,13.762c4.684,4.571,9.367,9.142,13.758,13.428c4.491,4.181,8.682,8.083,12.275,11.427
				c3.612,3.323,6.714,5.991,8.843,7.906c2.142,1.9,3.366,2.986,3.366,2.986c-2.556,4.28-3.511,10.184-6.702,14.234
				c6.197-0.745,14.575-2.98,21.439-1.637c0,0,3.155,2.709,6.418,5.288c3.238,2.608,6.477,5.216,6.477,5.216l6.093-7.63
				c0,0-3.222-2.595-8.056-6.488c-2.438-1.92-5.153-4.318-8.13-6.804c-2.949-2.519-6.15-5.143-9.252-7.88
				c-6.167-5.518-12.441-10.916-16.926-15.209c-4.543-4.229-7.571-7.048-7.571-7.048c-0.102-6.435,0.39-12.098,4.805-18.219
				c-5.311,2.204-11.204,4.13-14.992,8.351c0,0-1.375-1.342-3.781-3.691c-2.401-2.354-5.719-5.828-9.758-9.941
				c-8.074-8.229-18.463-19.563-28.603-31.115c-2.528-2.894-4.975-5.858-7.428-8.737c-1.221-1.444-2.433-2.877-3.63-4.293
				c-1.207-1.407-2.376-2.817-3.494-4.229c-2.26-2.806-4.444-5.518-6.515-8.09c-2.077-2.567-4.038-4.997-5.769-7.302
				c-3.507-4.574-6.43-8.386-8.475-11.055c-1.033-1.327-1.781-2.417-2.321-3.138c-0.531-0.728-0.814-1.116-0.814-1.116
				c2.966-5.466,5.82-9.058,10.893-13.809c-4.54-2.492-15.419-2.315-21.934-1.508c0,0-1.127-1.626-3.099-4.471
				c-1.956-2.856-4.846-6.872-8.062-11.86c-3.241-4.971-7.142-10.694-11.006-17.028c-1.964-3.146-3.994-6.397-6.056-9.701
				c-1.984-3.351-3.999-6.756-6.014-10.16c-4.104-6.767-7.842-13.744-11.493-20.201c-0.452-0.809-0.901-1.612-1.346-2.407
				c-0.425-0.806-0.846-1.604-1.263-2.393c-0.833-1.579-1.648-3.123-2.441-4.627c-1.587-3.007-3.087-5.85-4.471-8.474
				c-5.299-10.62-8.831-17.7-8.831-17.7L120.398,1169.69z"/>
		</g>
		<g>
			<path fill="#202020" d="M42.63,828.19c0,0,0.042,3.372,0.106,8.429c0.084,5.057,0.073,11.803,0.403,18.54
				c0.281,6.738,0.439,13.482,0.831,18.527c0.32,5.048,0.533,8.414,0.533,8.414c-5.758,2.514-12.913,7.333-14.399,10.372
				c4.249-0.891,10.861,2.091,15.619,5.261c0,0,0.175,1.972,0.482,5.424c0.162,1.725,0.321,3.824,0.572,6.224
				c0.274,2.398,0.583,5.103,0.92,8.054c0.337,2.951,0.703,6.148,1.09,9.53c0.399,3.38,0.949,6.928,1.447,10.607
				c0.524,3.676,1.024,7.48,1.609,11.335c0.637,3.846,1.284,7.754,1.932,11.661c0.324,1.954,0.648,3.907,0.97,5.854
				c0.318,1.947,0.726,3.87,1.081,5.787c0.734,3.829,1.456,7.598,2.154,11.244c0.658,3.655,1.487,7.149,2.194,10.479
				c0.724,3.326,1.409,6.47,2.041,9.373c0.601,2.91,1.298,5.543,1.857,7.891c0.572,2.345,1.071,4.389,1.482,6.072
				c0.822,3.367,1.291,5.291,1.291,5.291c-4.828,2.701-8.722,7.794-10.909,12.24c6.307-0.724,10.487,0.228,15.054,3.304
				c0,0,0.428,1.58,1.176,4.344c0.759,2.761,1.966,6.67,3.353,11.379c0.7,2.353,1.458,4.901,2.26,7.597
				c0.83,2.687,1.773,5.499,2.712,8.42c0.948,2.918,1.927,5.934,2.921,8.998c0.985,3.067,2.133,6.133,3.202,9.227
				c1.087,3.087,2.175,6.174,3.245,9.212c1.072,3.038,2.251,5.982,3.325,8.856c2.187,5.733,4.174,11.106,6.084,15.629
				c1.857,4.544,3.404,8.331,4.487,10.982c0.532,1.329,0.975,2.364,1.289,3.063c0.307,0.703,0.471,1.078,0.471,1.078
				c-4.145,2.745-7.519,7.635-12.146,9.903c2.939,1.01,6.531,1.928,10.08,3.115c3.56,1.183,7.023,2.656,9.901,4.718l7.046,15.068
				l8.794-4.243c0,0-0.441-0.936-1.211-2.573c-0.766-1.64-1.86-3.983-3.172-6.795c-1.296-2.819-2.882-6.075-4.447-9.623
				c-1.555-3.553-3.213-7.344-4.871-11.134c-0.818-1.9-1.684-3.78-2.449-5.667c-0.77-1.885-1.528-3.74-2.261-5.535
				c-1.467-3.591-2.836-6.942-4.01-9.814c-1.16-2.878-2.037-5.311-2.693-6.998c-0.643-1.692-1.011-2.659-1.011-2.659
				c2.743-5.86,5.517-10.701,12.158-14.304c-5.749-0.313-11.845-1.152-17.099,1.011c0,0-0.638-1.812-1.755-4.983
				c-0.559-1.586-1.237-3.511-2.015-5.719c-0.387-1.105-0.798-2.281-1.232-3.521c-0.405-1.249-0.832-2.563-1.277-3.933
				c-3.609-10.946-8.233-25.611-12.194-40.462c-0.995-3.711-2.026-7.413-2.977-11.074c-0.897-3.675-1.779-7.291-2.633-10.791
				c-1.78-6.982-3.13-13.572-4.369-19.2c-0.604-2.818-1.196-5.393-1.652-7.689c-0.441-2.3-0.825-4.305-1.141-5.956
				c-0.633-3.302-0.994-5.189-0.994-5.189c5.025-3.623,9.147-5.611,15.775-7.676c-1.554-2.11-4.687-4.311-8.286-6.253
				c-3.591-1.94-7.607-3.628-10.753-4.668c0,0-0.323-1.952-0.889-5.367c-0.303-1.705-0.597-3.786-0.924-6.174
				c-0.334-2.388-0.711-5.081-1.122-8.02c-0.389-2.941-0.907-6.116-1.278-9.495c-0.386-3.378-0.793-6.94-1.214-10.625
				c-0.933-7.361-1.496-15.257-2.231-23.135c-0.397-3.937-0.565-7.892-0.834-11.777c-0.246-3.887-0.489-7.712-0.724-11.414
				c-0.28-7.413-0.54-14.332-0.764-20.263c-0.15-11.869-0.25-19.782-0.25-19.782H42.63z"/>
		</g>
		<g>
			<path fill="#202020" d="M120.398,486.69c0,0-0.368,0.759-0.989,2.097c-0.624,1.337-1.516,3.247-2.586,5.539
				c-2.139,4.584-5.038,10.675-7.681,16.883c-1.352,3.09-2.703,6.18-3.97,9.077c-1.274,2.894-2.334,5.649-3.308,7.984
				c-1.913,4.683-3.189,7.805-3.189,7.805c-3.15-0.113-6.859,0.131-10.092,0.684c-3.216,0.558-5.992,1.409-7.345,2.443
				c4.218,1.038,8.873,6.586,11.775,11.498c0,0-0.704,1.851-1.935,5.091c-1.242,3.236-2.822,7.929-4.815,13.526
				c-3.983,11.195-8.771,26.303-13.204,41.513c-1.131,3.796-2.096,7.639-3.136,11.396c-0.999,3.769-2.064,7.456-2.947,11.063
				c-0.88,3.607-1.731,7.094-2.538,10.401c-0.789,3.311-1.615,6.423-2.211,9.334c-1.264,5.805-2.317,10.643-3.054,14.029
				c-0.374,1.692-0.658,3.024-0.821,3.938c-0.175,0.912-0.268,1.398-0.268,1.398c-5.462,0.361-11.209,3.262-15.128,6.321
				c5.994,2.073,9.339,4.736,12.101,9.479c0,0-0.088,0.4-0.21,1.157c-0.125,0.757-0.309,1.866-0.544,3.279
				c-0.468,2.825-1.137,6.861-1.939,11.703c-0.201,1.211-0.409,2.472-0.626,3.777c-0.185,1.31-0.377,2.664-0.574,4.057
				c-0.39,2.785-0.801,5.722-1.226,8.761c-0.399,3.042-0.922,6.171-1.252,9.376c-0.366,3.2-0.738,6.452-1.109,9.703
				c-0.35,3.253-0.792,6.498-1.059,9.708c-0.285,3.209-0.566,6.366-0.837,9.422c-0.269,3.056-0.528,6.01-0.775,8.811
				c-0.178,2.806-0.346,5.46-0.502,7.909c-0.31,4.899-0.569,8.981-0.75,11.838c-0.109,2.861-0.171,4.496-0.171,4.496
				c-4.927,0.676-10.094,3.618-15.247,3.654c2.207,2.183,5.041,4.568,7.72,7.176c2.672,2.609,5.191,5.439,6.884,8.545l-0.21,16.63
				h9.764c0,0,0.052-4.137,0.131-10.344c0.049-3.103,0.062-6.724,0.156-10.602c0.147-3.876,0.305-8.011,0.462-12.146
				c0.078-2.067,0.157-4.135,0.234-6.17c0.092-2.034,0.245-4.033,0.36-5.969c0.245-3.871,0.474-7.484,0.67-10.581
				c0.1-1.548,0.192-2.968,0.274-4.226c0.112-1.256,0.209-2.35,0.289-3.252c0.16-1.803,0.252-2.833,0.252-2.833
				c5.028-4.093,9.64-7.255,17.191-7.628c-5.069-2.775-10.271-6.176-15.917-6.497c0,0,0.876-7.635,2.191-19.088
				c0.802-5.708,1.738-12.367,2.741-19.501c0.589-3.554,1.197-7.226,1.816-10.958c0.635-3.729,1.196-7.531,1.963-11.298
				c1.479-7.541,2.795-15.115,4.414-22.137c0.766-3.52,1.507-6.922,2.209-10.149c0.676-3.233,1.494-6.248,2.153-9.053
				c1.386-5.594,2.462-10.277,3.345-13.521c0.878-3.245,1.38-5.1,1.38-5.1c6.114-1.09,10.698-1.099,17.573-0.093
				c-0.441-2.561-2.41-5.927-4.839-9.24c-2.384-3.297-5.261-6.551-7.64-8.847c0,0,0.564-1.896,1.551-5.214
				c0.493-1.659,1.093-3.673,1.78-5.984c0.711-2.303,1.575-4.883,2.484-7.707c0.916-2.822,1.909-5.879,2.959-9.113
				c1.03-3.24,2.293-6.598,3.503-10.103c1.242-3.495,2.482-7.121,3.822-10.778c1.384-3.64,2.79-7.338,4.196-11.036
				c0.703-1.849,1.406-3.698,2.106-5.54c0.743-1.825,1.483-3.642,2.218-5.446c1.473-3.605,2.922-7.153,4.325-10.586
				c2.887-6.832,5.724-13.149,8.083-18.594c5.019-10.755,8.365-17.925,8.365-17.925L120.398,486.69z"/>
		</g>
		<g>
			<path fill="#202020" d="M338.931,212.963c0,0-2.626,2.115-6.566,5.288c-0.985,0.793-2.052,1.653-3.18,2.562
				c-1.108,0.934-2.276,1.919-3.484,2.938c-2.414,2.041-4.989,4.219-7.565,6.396c-1.286,1.091-2.571,2.182-3.837,3.256
				c-1.242,1.102-2.463,2.186-3.646,3.235c-2.365,2.098-4.572,4.057-6.464,5.735c-3.807,3.331-6.251,5.656-6.251,5.656
				c-5.557-2.924-13.705-5.413-17.063-4.736c3.356,2.769,5.119,9.757,5.589,15.425c0,0-5.66,5.541-14.149,13.853
				c-2.075,2.125-4.323,4.427-6.701,6.862c-1.189,1.218-2.41,2.468-3.658,3.747c-1.256,1.272-2.523,2.585-3.776,3.955
				c-2.53,2.718-5.144,5.526-7.8,8.379c-1.32,1.434-2.684,2.849-3.993,4.325c-1.309,1.475-2.624,2.956-3.938,4.438
				c-2.629,2.962-5.257,5.925-7.844,8.841c-2.518,2.976-4.996,5.905-7.394,8.74c-4.85,5.625-9.134,11.075-12.871,15.693
				c-3.766,4.595-6.739,8.555-8.851,11.302c-2.108,2.75-3.313,4.322-3.313,4.322c-5.084-2.061-11.6-2.013-16.4-0.923
				c4.5,4.482,6.367,8.347,6.82,13.844c0,0-0.964,1.322-2.651,3.635c-1.718,2.291-4.033,5.664-6.829,9.699
				c-2.784,4.042-6.11,8.706-9.434,13.865c-3.356,5.137-7.035,10.552-10.441,16.142c-3.459,5.556-6.979,11.075-10.044,16.392
				c-3.098,5.296-6.102,10.174-8.443,14.49c-2.395,4.285-4.391,7.855-5.788,10.355c-1.413,2.491-2.159,3.948-2.159,3.948
				c-4.728-1.535-10.652-1.131-15.307-3.34c2.099,5.876,6.039,13.496,6.304,20.512l-7.402,14.896l8.794,4.243
				c0,0,1.841-3.705,4.603-9.262c0.69-1.389,1.438-2.895,2.229-4.487c0.785-1.595,1.621-3.273,2.542-4.98
				c1.81-3.43,3.741-7.09,5.671-10.749c1.892-3.68,3.957-7.266,5.841-10.657c1.893-3.386,3.659-6.546,5.173-9.254
				c3.156-5.344,5.26-8.906,5.26-8.906c6.293-1.502,11.786-2.36,18.765,0.607c-3.31-4.68-6.475-9.987-11.433-12.746
				c0,0,1.017-1.63,2.798-4.482c1.784-2.85,4.287-6.951,7.498-11.738c3.186-4.803,6.801-10.475,10.967-16.356
				c2.052-2.961,4.173-6.02,6.328-9.129c2.225-3.059,4.486-6.166,6.746-9.273c9.022-12.446,18.595-24.479,25.865-33.424
				c1.786-2.263,3.518-4.258,5.025-6.05c1.512-1.788,2.83-3.347,3.916-4.631c2.171-2.568,3.411-4.035,3.411-4.035
				c5.943,1.645,10.108,3.659,15.865,7.556c1.458-4.951-1.069-15.473-3.374-21.716c0,0,1.294-1.497,3.67-4.015
				c2.359-2.534,5.728-6.154,9.772-10.498c4.118-4.273,8.963-9.22,14.16-14.512c2.654-2.591,5.396-5.269,8.183-7.99
				c1.393-1.36,2.797-2.732,4.207-4.108c1.42-1.366,2.884-2.697,4.327-4.05c2.896-2.696,5.792-5.392,8.642-8.045
				c2.862-2.641,5.766-5.144,8.529-7.618c2.788-2.446,5.426-4.876,8.029-7.064c2.596-2.195,5.051-4.271,7.317-6.187
				c2.272-1.908,4.329-3.689,6.198-5.212c1.878-1.512,3.515-2.83,4.863-3.916c2.696-2.171,4.237-3.412,4.237-3.412L338.931,212.963z
				"/>
		</g>
		<g>
			<path fill="#202020" d="M654.408,60.862c0,0-0.824,0.179-2.266,0.493c-1.434,0.348-3.482,0.845-5.94,1.441
				c-2.457,0.6-5.324,1.299-8.396,2.049c-1.536,0.375-3.123,0.762-4.735,1.156c-1.603,0.432-3.231,0.871-4.859,1.31
				c-3.256,0.881-6.511,1.762-9.563,2.588c-1.526,0.413-3.001,0.812-4.4,1.191c-1.389,0.412-2.703,0.802-3.915,1.161
				c-4.849,1.442-8.082,2.404-8.082,2.404c-3.734-5.048-10.031-10.947-13.328-11.723c1.818,3.943,0.386,11.054-1.641,16.4
				c0,0-1.884,0.612-5.18,1.682c-1.644,0.546-3.658,1.161-5.937,1.955c-2.277,0.802-4.845,1.706-7.647,2.693
				c-2.802,0.987-5.837,2.056-9.048,3.187c-3.183,1.206-6.54,2.477-10.012,3.792c-3.461,1.344-7.079,2.629-10.68,4.124
				c-3.609,1.475-7.276,2.973-10.942,4.471c-1.829,0.759-3.676,1.477-5.483,2.266c-1.807,0.791-3.608,1.578-5.394,2.359
				c-3.572,1.563-7.087,3.101-10.489,4.589c-6.731,3.138-13.013,6.066-18.398,8.577c-5.32,2.644-9.754,4.847-12.858,6.389
				c-1.552,0.771-2.771,1.377-3.602,1.79c-0.824,0.428-1.263,0.657-1.263,0.657c-3.685-4.044-9.533-6.723-14.364-7.876
				c2.116,5.981,2.12,10.26,0.137,15.383c0,0-1.459,0.741-3.95,2.155c-2.499,1.397-6.07,3.393-10.355,5.788
				c-4.316,2.342-9.198,5.339-14.492,8.44c-5.316,3.067-10.839,6.58-16.394,10.041c-5.589,3.408-11.009,7.08-16.144,10.438
				c-5.159,3.324-9.827,6.643-13.867,9.43c-4.033,2.798-7.41,5.107-9.701,6.826c-2.314,1.687-3.635,2.651-3.635,2.651
				c-3.604-3.434-9.135-5.652-12.378-9.658c-0.337,3.079-0.443,6.77-0.816,10.484c-0.341,3.759-0.949,7.538-2.35,10.76
				c0,0-3.3,2.53-6.6,5.06c-1.663,1.249-3.269,2.57-4.485,3.545c-1.214,0.978-2.024,1.63-2.024,1.63l6.093,7.63
				c0,0,0.806-0.649,2.215-1.784c0.705-0.568,1.561-1.257,2.543-2.047c1-0.767,2.129-1.632,3.361-2.576
				c4.937-3.76,11.442-8.878,18.179-13.685c3.354-2.422,6.66-4.912,9.845-7.126c3.188-2.21,6.163-4.272,8.713-6.04
				c5.076-3.572,8.555-5.812,8.555-5.812c6.34,1.39,11.692,3.031,16.691,8.706c-0.983-5.683-1.569-11.876-4.844-16.504
				c0,0,6.517-4.073,16.292-10.183c4.965-2.928,10.757-6.343,16.964-10.002c3.144-1.758,6.394-3.574,9.695-5.42
				c1.651-0.923,3.315-1.853,4.985-2.787c1.669-0.937,3.385-1.802,5.079-2.708c3.398-1.793,6.797-3.586,10.142-5.351
				c1.665-0.897,3.34-1.743,5.005-2.558c1.66-0.825,3.3-1.64,4.913-2.441c3.226-1.603,6.345-3.152,9.302-4.622
				c2.992-1.397,5.821-2.718,8.432-3.937c5.22-2.443,9.566-4.489,12.665-5.795c3.08-1.347,4.841-2.117,4.841-2.117
				c4.66,4.092,7.523,7.667,11.021,13.666c3.402-3.959,5.743-14.39,6.37-21.016c0,0,1.831-0.748,5.036-2.058
				c3.186-1.357,7.827-3.066,13.37-5.184c2.778-1.043,5.769-2.222,8.965-3.38c3.207-1.129,6.588-2.32,10.087-3.552
				c6.968-2.547,14.532-4.878,22.049-7.347l2.821-0.916l2.836-0.847c1.889-0.562,3.77-1.121,5.636-1.676
				c3.736-1.1,7.399-2.227,10.968-3.237c7.166-1.915,13.83-3.796,19.584-5.246c5.765-1.407,10.569-2.579,13.932-3.4
				c1.681-0.411,3.001-0.74,3.91-0.924c0.906-0.197,1.389-0.302,1.389-0.302L654.408,60.862z"/>
		</g>
		<g>
			<path fill="#202020" d="M1004.69,60.862c0,0-3.295-0.717-8.238-1.794c-2.472-0.537-5.355-1.163-8.445-1.835
				c-3.105-0.595-6.418-1.23-9.73-1.865c-3.313-0.632-6.626-1.264-9.731-1.856c-3.119-0.517-6.031-0.999-8.526-1.413
				c-4.991-0.827-8.318-1.378-8.318-1.378c-1.173-6.244-4.328-14.082-6.955-16.273c-0.067,4.344-4.43,10.118-8.568,14.041
				c0,0-1.961-0.274-5.393-0.754c-3.437-0.445-8.36-0.971-14.261-1.657c-5.895-0.747-12.805-1.295-20.201-1.96
				c-1.849-0.164-3.729-0.331-5.632-0.5c-1.905-0.151-3.836-0.252-5.781-0.382c-3.891-0.247-7.843-0.497-11.796-0.747l-2.963-0.188
				l-2.961-0.116c-1.971-0.075-3.934-0.15-5.882-0.224c-3.895-0.148-7.729-0.293-11.439-0.434
				c-7.425-0.094-14.354-0.182-20.294-0.257c-11.879,0.15-19.799,0.25-19.799,0.25c-1.559-5.268-5.657-10.195-9.503-13.331
				c-0.697,6.308-2.555,10.168-6.57,13.928c0,0-1.635,0.062-4.496,0.171c-2.857,0.18-6.94,0.437-11.838,0.746
				c-2.449,0.155-5.103,0.324-7.909,0.502c-2.801,0.245-5.756,0.503-8.812,0.771c-3.056,0.271-6.213,0.552-9.422,0.837
				c-3.211,0.259-6.455,0.707-9.708,1.055c-6.502,0.744-13.011,1.44-19.079,2.358c-3.038,0.425-5.975,0.836-8.761,1.226
				c-1.392,0.196-2.747,0.386-4.057,0.57c-1.305,0.216-2.566,0.425-3.777,0.626c-4.843,0.802-8.878,1.471-11.703,1.939
				c-1.413,0.234-2.522,0.418-3.279,0.543c-0.758,0.12-1.158,0.206-1.158,0.206c-1.746-4.652-5.754-9.028-6.927-14.044
				c-3.289,5.293-6.779,13.192-12.115,17.7l-16.254,3.538l2.164,9.521c0,0,4.043-0.88,10.106-2.2
				c6.046-1.407,14.195-2.857,22.316-4.439c1.016-0.194,2.032-0.388,3.044-0.582c1.016-0.168,2.029-0.336,3.033-0.502
				c2.009-0.333,3.986-0.66,5.899-0.977c3.827-0.632,7.399-1.222,10.46-1.727c6.146-0.86,10.244-1.433,10.244-1.433
				c5.096,3.982,9.193,7.754,11.219,15.044c1.597-5.503,3.775-11.283,2.843-16.88c0,0,1.909-0.218,5.249-0.6
				c3.344-0.35,8.104-1.012,13.852-1.462c11.476-1.083,26.805-2.29,42.167-2.862c3.84-0.146,7.68-0.292,11.46-0.436
				c3.781-0.1,7.505-0.109,11.107-0.166c3.602-0.042,7.085-0.083,10.387-0.121c3.302,0.042,6.424,0.081,9.306,0.118
				c5.764,0.086,10.568,0.088,13.927,0.267c3.36,0.128,5.28,0.201,5.28,0.201c2.424,5.713,3.453,10.178,4.005,17.102
				c2.399-0.993,5.246-3.705,7.932-6.762c2.684-3.062,5.215-6.594,6.923-9.426c0,0,1.974,0.125,5.429,0.344
				c1.728,0.109,3.825,0.242,6.231,0.395c2.402,0.211,5.111,0.448,8.067,0.708c2.956,0.262,6.158,0.547,9.544,0.847
				c1.695,0.135,3.431,0.319,5.204,0.533c1.774,0.203,3.585,0.41,5.428,0.621c3.685,0.422,7.493,0.857,11.362,1.3
				c3.857,0.54,7.775,1.088,11.693,1.636c7.85,1.008,15.637,2.422,22.96,3.608c3.666,0.568,7.18,1.28,10.52,1.915
				c3.339,0.64,6.496,1.245,9.41,1.803c2.92,0.529,5.571,1.14,7.928,1.648c2.356,0.513,4.409,0.96,6.1,1.328
				c3.382,0.736,5.315,1.157,5.315,1.157L1004.69,60.862z"/>
		</g>
		<g>
			<path fill="#202020" d="M1320.167,212.963c0,0-0.657-0.529-1.806-1.454c-1.155-0.918-2.773-2.27-4.794-3.791
				c-4.026-3.062-9.339-7.219-14.747-11.248c-5.458-3.961-10.877-7.979-15.007-10.899c-4.157-2.882-6.929-4.803-6.929-4.803
				c1.63-6.079,2.276-14.611,0.879-17.746c-1.951,3.877-8.409,7.195-13.858,8.946c0,0-1.654-1.089-4.549-2.994
				c-1.447-0.953-3.205-2.109-5.221-3.436c-2.045-1.281-4.353-2.727-6.87-4.304c-2.52-1.573-5.25-3.277-8.137-5.079
				c-2.885-1.806-6.007-3.58-9.193-5.486c-3.204-1.877-6.483-3.87-9.872-5.798c-3.403-1.902-6.86-3.835-10.317-5.768
				c-1.729-0.966-3.458-1.931-5.18-2.893c-1.745-0.921-3.482-1.838-5.206-2.747c-3.448-1.819-6.842-3.61-10.126-5.342
				c-6.615-3.375-12.847-6.409-18.16-9.068c-10.766-5.028-17.943-8.38-17.943-8.38c0.871-5.4-0.674-11.641-2.781-16.136
				c-3.364,5.38-6.712,8.048-11.958,9.688c0,0-0.375-0.164-1.078-0.471c-0.701-0.312-1.732-0.761-3.062-1.293
				c-2.651-1.083-6.438-2.63-10.982-4.487c-4.523-1.91-9.893-3.905-15.627-6.088c-2.873-1.076-5.82-2.249-8.855-3.329
				c-3.038-1.07-6.125-2.158-9.212-3.245c-3.093-1.07-6.161-2.213-9.225-3.205c-3.064-0.995-6.079-1.974-8.998-2.922
				c-2.92-0.942-5.743-1.853-8.419-2.716c-2.696-0.802-5.244-1.56-7.597-2.26c-4.708-1.389-8.619-2.591-11.378-3.357
				c-2.764-0.748-4.344-1.176-4.344-1.176c0.439-4.956-1.279-10.653-0.167-15.685c-5.253,3.344-11.785,8.844-18.583,10.753
				c0,0-4.04-0.986-8.08-1.972c-2.02-0.493-4.04-0.985-5.555-1.354c-1.524-0.332-2.54-0.553-2.54-0.553l-2.164,9.521
				c0,0,1.01,0.222,2.778,0.611c1.758,0.429,4.27,1.042,7.285,1.778c3.015,0.736,6.531,1.594,10.299,2.513
				c3.755,0.969,7.74,2.082,11.737,3.153c8.012,2.073,15.908,4.556,21.864,6.297c1.487,0.442,2.85,0.848,4.058,1.207
				c1.199,0.388,2.245,0.727,3.106,1.006c1.722,0.559,2.705,0.878,2.705,0.878c2.866,5.816,4.917,11.017,3.592,18.46
				c3.839-4.327,8.312-8.623,9.888-14.055c0,0,7.244,2.565,18.11,6.412c5.379,2.069,11.691,4.393,18.389,7.043
				c3.335,1.363,6.781,2.77,10.282,4.201c1.751,0.715,3.515,1.436,5.287,2.16c1.754,0.766,3.514,1.535,5.275,2.304
				c3.52,1.54,7.041,3.08,10.506,4.596c3.464,1.518,6.81,3.153,10.083,4.658c3.26,1.532,6.428,2.98,9.403,4.411
				c2.957,1.47,5.753,2.859,8.334,4.142c2.581,1.282,4.947,2.458,7.044,3.5c2.091,1.054,3.882,2.035,5.373,2.811
				c2.974,1.569,4.673,2.466,4.673,2.466c-0.301,6.192-1.316,10.656-3.833,17.128c1.301,0.067,2.884-0.198,4.609-0.671
				c1.714-0.453,3.576-1.129,5.454-1.927c3.754-1.597,7.575-3.683,10.349-5.494c0,0,1.727,0.965,4.748,2.654
				c0.755,0.423,1.591,0.89,2.502,1.4c0.898,0.531,1.869,1.105,2.907,1.719c2.075,1.227,4.417,2.611,6.971,4.121
				c10.248,5.989,23.605,14.485,36.78,23.251c3.283,2.207,6.511,4.495,9.719,6.704c3.19,2.233,6.38,4.361,9.352,6.581
				c2.997,2.186,5.894,4.298,8.641,6.302c1.372,1.004,2.706,1.98,3.997,2.925c1.269,0.973,2.496,1.914,3.673,2.816
				c4.706,3.616,8.627,6.629,11.373,8.738c2.696,2.172,4.237,3.412,4.237,3.412L1320.167,212.963z"/>
		</g>
		<g>
			<path fill="#202020" d="M1538.7,486.69c0,0-1.501-3.02-3.752-7.551c-1.126-2.265-2.439-4.908-3.846-7.739
				c-1.405-2.832-3.029-5.789-4.587-8.78c-1.574-2.983-3.148-5.965-4.623-8.762c-1.506-2.78-2.972-5.341-4.198-7.554
				c-2.469-4.416-4.114-7.359-4.114-7.359c4.146-4.805,8.331-12.17,8.399-15.585c-3.439,2.655-10.674,2.841-16.321,2.051
				c0,0-1.008-1.705-2.772-4.688c-1.832-2.942-4.448-7.144-7.588-12.188c-0.787-1.26-1.606-2.572-2.454-3.93
				c-0.854-1.355-1.783-2.725-2.712-4.15c-1.871-2.843-3.845-5.841-5.886-8.943c-2.009-3.123-4.227-6.255-6.444-9.462
				c-2.224-3.202-4.483-6.455-6.741-9.708c-9.265-12.85-18.793-25.511-26.266-34.749c-3.739-4.616-6.803-8.506-9.034-11.157
				c-2.237-2.646-3.516-4.159-3.516-4.159c3.132-4.499,4.468-10.815,4.54-15.799c-5.354,3.386-9.499,4.318-15.002,3.581
				c0,0-1.086-1.224-2.986-3.366c-1.914-2.13-4.586-5.228-7.903-8.846c-3.344-3.593-7.246-7.784-11.427-12.275
				c-4.284-4.392-8.854-9.077-13.424-13.762c-4.684-4.571-9.367-9.142-13.758-13.428c-4.491-4.181-8.682-8.083-12.275-11.427
				c-3.612-3.323-6.714-5.991-8.843-7.906c-2.142-1.9-3.366-2.986-3.366-2.986c2.556-4.28,3.511-10.184,6.702-14.235
				c-6.197,0.745-14.574,2.98-21.439,1.637c0,0-3.155-2.71-6.418-5.288c-3.238-2.608-6.477-5.217-6.477-5.217l-6.093,7.63
				c0,0,3.222,2.595,8.056,6.488c2.438,1.92,5.153,4.318,8.13,6.804c2.949,2.519,6.15,5.143,9.252,7.88
				c6.167,5.517,12.441,10.916,16.926,15.209c4.543,4.229,7.571,7.048,7.571,7.048c0.102,6.435-0.391,12.098-4.805,18.219
				c5.311-2.204,11.204-4.13,14.992-8.351c0,0,1.375,1.342,3.781,3.691c2.401,2.354,5.719,5.828,9.758,9.941
				c8.074,8.229,18.463,19.563,28.603,31.114c2.528,2.894,4.975,5.858,7.428,8.737c1.221,1.444,2.433,2.877,3.63,4.293
				c1.207,1.407,2.376,2.817,3.494,4.229c2.26,2.806,4.444,5.518,6.515,8.09c2.077,2.567,4.038,4.997,5.769,7.302
				c3.507,4.574,6.43,8.386,8.476,11.054c1.033,1.327,1.781,2.417,2.321,3.138c0.531,0.728,0.814,1.116,0.814,1.116
				c-2.966,5.466-5.82,9.058-10.893,13.809c4.54,2.492,15.419,2.315,21.934,1.508c0,0,1.127,1.626,3.099,4.471
				c1.956,2.856,4.845,6.872,8.062,11.86c3.241,4.971,7.142,10.694,11.005,17.028c1.964,3.146,3.994,6.397,6.056,9.701
				c1.984,3.351,3.999,6.756,6.014,10.16c4.104,6.767,7.842,13.744,11.493,20.201c0.452,0.809,0.901,1.612,1.346,2.407
				c0.425,0.806,0.846,1.603,1.263,2.393c0.833,1.579,1.648,3.123,2.441,4.627c1.587,3.007,3.087,5.85,4.471,8.474
				c5.299,10.62,8.831,17.7,8.831,17.7L1538.7,486.69z"/>
		</g>
		<g>
			<path fill="#202020" d="M1616.468,828.19c0,0-0.042-3.372-0.106-8.429c-0.083-5.057-0.073-11.803-0.403-18.54
				c-0.281-6.738-0.439-13.482-0.831-18.527c-0.32-5.048-0.533-8.414-0.533-8.414c5.758-2.514,12.913-7.333,14.399-10.372
				c-4.249,0.891-10.861-2.091-15.619-5.261c0,0-0.175-1.972-0.482-5.424c-0.162-1.725-0.321-3.823-0.572-6.224
				c-0.274-2.398-0.583-5.103-0.92-8.054s-0.703-6.148-1.09-9.53c-0.399-3.38-0.949-6.928-1.447-10.607
				c-0.524-3.676-1.024-7.48-1.609-11.335c-0.637-3.846-1.284-7.754-1.932-11.661c-0.324-1.954-0.648-3.907-0.97-5.853
				c-0.318-1.947-0.726-3.87-1.081-5.787c-0.734-3.829-1.456-7.598-2.155-11.244c-0.658-3.655-1.487-7.149-2.194-10.479
				c-0.724-3.326-1.409-6.47-2.041-9.373c-0.601-2.91-1.298-5.543-1.857-7.891c-0.572-2.345-1.071-4.389-1.482-6.073
				c-0.822-3.367-1.291-5.291-1.291-5.291c4.828-2.701,8.722-7.794,10.909-12.24c-6.307,0.724-10.487-0.228-15.054-3.304
				c0,0-0.428-1.58-1.176-4.344c-0.759-2.761-1.966-6.67-3.353-11.379c-0.7-2.353-1.458-4.901-2.26-7.597
				c-0.83-2.687-1.773-5.499-2.712-8.42c-0.948-2.918-1.927-5.934-2.922-8.998c-0.985-3.067-2.133-6.133-3.202-9.227
				c-1.087-3.087-2.175-6.174-3.245-9.212c-1.073-3.038-2.251-5.982-3.325-8.856c-2.187-5.733-4.174-11.106-6.084-15.629
				c-1.857-4.544-3.404-8.331-4.487-10.982c-0.532-1.329-0.975-2.364-1.29-3.063c-0.307-0.703-0.471-1.078-0.471-1.078
				c4.145-2.745,7.519-7.635,12.146-9.903c-2.939-1.01-6.531-1.928-10.08-3.115c-3.56-1.183-7.023-2.656-9.901-4.718l-7.046-15.068
				l-8.794,4.243c0,0,0.44,0.936,1.211,2.573c0.766,1.64,1.86,3.983,3.172,6.795c1.296,2.819,2.882,6.074,4.448,9.623
				c1.555,3.553,3.213,7.344,4.871,11.134c0.818,1.9,1.684,3.78,2.449,5.667c0.77,1.885,1.528,3.74,2.261,5.535
				c1.467,3.591,2.836,6.942,4.01,9.814c1.16,2.878,2.037,5.311,2.693,6.998c0.643,1.692,1.011,2.659,1.011,2.659
				c-2.743,5.86-5.517,10.701-12.158,14.304c5.749,0.313,11.845,1.152,17.099-1.011c0,0,0.638,1.812,1.755,4.983
				c0.558,1.586,1.237,3.511,2.015,5.719c0.387,1.105,0.798,2.281,1.231,3.521c0.406,1.249,0.832,2.563,1.277,3.933
				c3.609,10.946,8.233,25.611,12.194,40.462c0.995,3.711,2.026,7.413,2.977,11.074c0.897,3.675,1.779,7.291,2.633,10.791
				c1.78,6.982,3.13,13.572,4.369,19.2c0.604,2.818,1.196,5.393,1.652,7.689c0.441,2.3,0.825,4.305,1.141,5.956
				c0.633,3.302,0.994,5.189,0.994,5.189c-5.025,3.623-9.147,5.611-15.775,7.676c1.554,2.11,4.687,4.311,8.286,6.253
				c3.591,1.94,7.607,3.628,10.753,4.668c0,0,0.323,1.952,0.889,5.367c0.303,1.705,0.597,3.786,0.924,6.174
				c0.334,2.388,0.711,5.081,1.122,8.02c0.389,2.941,0.907,6.116,1.278,9.495c0.386,3.378,0.793,6.94,1.214,10.625
				c0.933,7.361,1.496,15.257,2.231,23.135c0.397,3.937,0.565,7.892,0.834,11.777c0.246,3.887,0.489,7.712,0.724,11.414
				c0.28,7.413,0.541,14.332,0.764,20.263c0.15,11.869,0.25,19.782,0.25,19.782H1616.468z"/>
		</g>
	</g>
</g>
</svg>
